<?xml version="1.0" encoding="UTF-8"?>
<svg version="1.1" xmlns="http://www.w3.org/2000/svg" width="180" height="180">
<path d="M0 0 C0.886875 0.35191406 1.77375 0.70382813 2.6875 1.06640625 C5 2 5 2 7 3 C11.80209706 4.60069902 15.25904264 3.86041534 19.703125 1.6640625 C20.68796875 1.13554687 21.6728125 0.60703125 22.6875 0.0625 C34.43288921 -6.02228445 46.57178263 -6.09922817 59.125 -2.375 C65.16311867 -0.20159341 69.99639315 3.03285457 75 7 C75.598125 7.46921875 76.19625 7.9384375 76.8125 8.421875 C86.45257336 16.23033442 86.45257336 16.23033442 87.26806641 21.84594727 C87.46302927 24.14740239 87.58899591 26.44238668 87.6875 28.75 C87.72657471 29.5867627 87.76564941 30.42352539 87.8059082 31.28564453 C88.6199245 52.22824374 88.6199245 52.22824374 85 60 C84.34 60 83.68 60 83 60 C82.80664062 60.58007812 82.61328125 61.16015625 82.4140625 61.7578125 C81.87200394 63.38398818 81.32622695 65.00892764 80.77734375 66.6328125 C80.19519813 68.40557754 79.6752756 70.1989824 79.1875 72 C77.3814826 76.56257028 74.53604914 82.73197543 70 85 C69.67 85.99 69.34 86.98 69 88 C68.01 88.33 67.02 88.66 66 89 C65.87625 89.61875 65.7525 90.2375 65.625 90.875 C65 93 65 93 62.8515625 94.2578125 C59.30943045 96.42190962 56.65043113 99.05691547 53.75 102 C53.20859375 102.53367187 52.6671875 103.06734375 52.109375 103.6171875 C49.69167105 106.04697997 48.09820551 107.70538346 47 111 C46.44699219 111.12632812 45.89398438 111.25265625 45.32421875 111.3828125 C41.84936522 112.30554671 39.49560013 114.58999555 36.8125 116.875 C36.26658203 117.32230469 35.72066406 117.76960938 35.15820312 118.23046875 C32.53229502 120.43662203 31.10451791 121.68644628 30 125 C29.01 125.33 28.02 125.66 27 126 C26.67 126.66 26.34 127.32 26 128 C25.2575 128.144375 24.515 128.28875 23.75 128.4375 C20.93109113 128.85040621 20.93109113 128.85040621 18.5625 130.5 C15.50406703 132.29030222 13.55025146 132.86077445 10 133 C5.77343335 131.86365036 1.87555699 130.00954807 -2 128 C-2.99 127.67 -3.98 127.34 -5 127 C-5.33 126.34 -5.66 125.68 -6 125 C-6.99 124.67 -7.98 124.34 -9 124 C-9.28875 123.38125 -9.5775 122.7625 -9.875 122.125 C-11.82596169 118.43985015 -15.17961256 117.27346248 -19 116 C-19.26425781 115.44054687 -19.52851562 114.88109375 -19.80078125 114.3046875 C-21.57085461 110.90291786 -24.36716441 108.64837502 -27.1875 106.125 C-27.77321777 105.59342285 -28.35893555 105.0618457 -28.96240234 104.51416016 C-36.18172654 97.88089643 -36.18172654 97.88089643 -44 92 C-44.165 91.319375 -44.33 90.63875 -44.5 89.9375 C-44.7475 88.9784375 -44.7475 88.9784375 -45 88 C-46.485 87.505 -46.485 87.505 -48 87 C-48.33 86.01 -48.66 85.02 -49 84 C-49.5775 83.46375 -50.155 82.9275 -50.75 82.375 C-55.44489565 77.41927681 -58.2291393 71.78357414 -59 65 C-59.62225605 63.31624835 -60.27544365 61.64232772 -61 60 C-61.66 60 -62.32 60 -63 60 C-65.57159631 55.04574099 -65.49155468 49.95795103 -65.6875 44.5 C-65.72439941 43.51692871 -65.76129883 42.53385742 -65.79931641 41.52099609 C-66.4620862 20.87316799 -66.4620862 20.87316799 -61.44921875 13.48828125 C-59.7762717 11.77024129 -58.14821592 11.04353563 -56 10 C-54.76314508 8.92787903 -53.5560485 7.82080398 -52.375 6.6875 C-37.47373347 -6.48806839 -17.76069416 -7.54260249 0 0 Z M-64 21 C-63 23 -63 23 -63 23 Z M85 21 C86 23 86 23 86 23 Z M-64 51 C-63 54 -63 54 -63 54 Z M85 51 C86 54 86 54 86 54 Z M-63 55 C-62 57 -62 57 -62 57 Z M84 55 C85 57 85 57 85 57 Z " fill="#FD5646" transform="translate(79,26)"/>
<path d="M0 0 C0.886875 0.35191406 1.77375 0.70382813 2.6875 1.06640625 C5 2 5 2 7 3 C11.80209706 4.60069902 15.25904264 3.86041534 19.703125 1.6640625 C20.68796875 1.13554687 21.6728125 0.60703125 22.6875 0.0625 C34.43288921 -6.02228445 46.57178263 -6.09922817 59.125 -2.375 C65.16311867 -0.20159341 69.99639315 3.03285457 75 7 C75.598125 7.46921875 76.19625 7.9384375 76.8125 8.421875 C86.45257336 16.23033442 86.45257336 16.23033442 87.26806641 21.84594727 C87.46302927 24.14740239 87.58899591 26.44238668 87.6875 28.75 C87.72657471 29.5867627 87.76564941 30.42352539 87.8059082 31.28564453 C88.6199245 52.22824374 88.6199245 52.22824374 85 60 C84.34 60 83.68 60 83 60 C82.80664062 60.58007812 82.61328125 61.16015625 82.4140625 61.7578125 C81.87200394 63.38398818 81.32622695 65.00892764 80.77734375 66.6328125 C80.19519813 68.40557754 79.6752756 70.1989824 79.1875 72 C77.3814826 76.56257028 74.53604914 82.73197543 70 85 C69.67 85.99 69.34 86.98 69 88 C68.01 88.33 67.02 88.66 66 89 C65.87625 89.61875 65.7525 90.2375 65.625 90.875 C65 93 65 93 62.8515625 94.2578125 C59.30943045 96.42190962 56.65043113 99.05691547 53.75 102 C53.20859375 102.53367187 52.6671875 103.06734375 52.109375 103.6171875 C49.69167105 106.04697997 48.09820551 107.70538346 47 111 C46.44699219 111.12632812 45.89398438 111.25265625 45.32421875 111.3828125 C41.84936522 112.30554671 39.49560013 114.58999555 36.8125 116.875 C36.26658203 117.32230469 35.72066406 117.76960938 35.15820312 118.23046875 C32.53229502 120.43662203 31.10451791 121.68644628 30 125 C29.01 125.33 28.02 125.66 27 126 C26.67 126.66 26.34 127.32 26 128 C25.2575 128.144375 24.515 128.28875 23.75 128.4375 C20.93109113 128.85040621 20.93109113 128.85040621 18.5625 130.5 C15.50406703 132.29030222 13.55025146 132.86077445 10 133 C5.77343335 131.86365036 1.87555699 130.00954807 -2 128 C-2.99 127.67 -3.98 127.34 -5 127 C-5.33 126.34 -5.66 125.68 -6 125 C-6.99 124.67 -7.98 124.34 -9 124 C-9.28875 123.38125 -9.5775 122.7625 -9.875 122.125 C-11.82596169 118.43985015 -15.17961256 117.27346248 -19 116 C-19.26425781 115.44054687 -19.52851562 114.88109375 -19.80078125 114.3046875 C-21.57085461 110.90291786 -24.36716441 108.64837502 -27.1875 106.125 C-27.77321777 105.59342285 -28.35893555 105.0618457 -28.96240234 104.51416016 C-36.18172654 97.88089643 -36.18172654 97.88089643 -44 92 C-44.165 91.319375 -44.33 90.63875 -44.5 89.9375 C-44.7475 88.9784375 -44.7475 88.9784375 -45 88 C-46.485 87.505 -46.485 87.505 -48 87 C-48.33 86.01 -48.66 85.02 -49 84 C-49.5775 83.46375 -50.155 82.9275 -50.75 82.375 C-55.44489565 77.41927681 -58.2291393 71.78357414 -59 65 C-59.62225605 63.31624835 -60.27544365 61.64232772 -61 60 C-61.66 60 -62.32 60 -63 60 C-65.57159631 55.04574099 -65.49155468 49.95795103 -65.6875 44.5 C-65.72439941 43.51692871 -65.76129883 42.53385742 -65.79931641 41.52099609 C-66.4620862 20.87316799 -66.4620862 20.87316799 -61.44921875 13.48828125 C-59.7762717 11.77024129 -58.14821592 11.04353563 -56 10 C-54.76314508 8.92787903 -53.5560485 7.82080398 -52.375 6.6875 C-37.47373347 -6.48806839 -17.76069416 -7.54260249 0 0 Z M-53 16 C-57.74405701 22.30719101 -59.18070608 27.28617258 -59.1875 35.1875 C-59.19974609 35.91775391 -59.21199219 36.64800781 -59.22460938 37.40039062 C-59.28957056 61.8474508 -42.92786675 82.11121235 -26.6875 98.625 C-20.40935462 104.88639089 -13.77740392 110.45279024 -6.66552734 115.73583984 C-4.98715127 117.00975238 -3.36133265 118.3323126 -1.73828125 119.67578125 C-0.70053987 120.51304443 0.33721968 121.35028508 1.375 122.1875 C2.26960938 122.92355469 3.16421875 123.65960938 4.0859375 124.41796875 C7.8191043 126.44468799 10.89849496 126.91657271 15 126 C17.85925514 124.57290595 20.22399706 122.70974184 22.6875 120.6875 C23.38174072 120.13989014 24.07598145 119.59228027 24.79125977 119.02807617 C26.87727525 117.3713587 28.93935631 115.68810367 31 114 C32.10886637 113.11654871 33.21820285 112.23368699 34.328125 111.3515625 C55.36251282 94.35556736 77.14724873 72.06530019 81 44 C81.78930405 32.58891858 81.64878261 24.06410952 74.23828125 14.796875 C67.57101261 7.4939844 57.87197318 2.25496553 47.8984375 1.62890625 C34.70876196 1.27015172 25.01047512 3.5548996 15.03515625 12.7421875 C13 14 13 14 10.484375 13.87109375 C7.8850734 12.95970341 6.29590685 11.94080675 4.1875 10.1875 C-13.71907427 -3.8674715 -37.95580124 -0.55964003 -53 16 Z M-64 21 C-63 23 -63 23 -63 23 Z M85 21 C86 23 86 23 86 23 Z M-64 51 C-63 54 -63 54 -63 54 Z M85 51 C86 54 86 54 86 54 Z M-63 55 C-62 57 -62 57 -62 57 Z M84 55 C85 57 85 57 85 57 Z " fill="#252D2F" transform="translate(79,26)"/>
<path d="M0 0 C1.093125 0.00257812 2.18625 0.00515625 3.3125 0.0078125 C4.405625 0.00523438 5.49875 0.00265625 6.625 0 C9.3125 0.1328125 9.3125 0.1328125 10.3125 1.1328125 C10.45780987 2.82709557 10.53966523 4.52691992 10.59375 6.2265625 C10.64982422 7.77150391 10.64982422 7.77150391 10.70703125 9.34765625 C10.77734375 11.53776042 10.84765625 13.72786458 10.91796875 15.91796875 C10.97404297 17.46291016 10.97404297 17.46291016 11.03125 19.0390625 C11.06154297 19.99103516 11.09183594 20.94300781 11.12304688 21.92382812 C11.07135402 24.10636565 11.07135402 24.10636565 12.3125 25.1328125 C14.00678307 25.27812237 15.70660742 25.35997773 17.40625 25.4140625 C18.95119141 25.47013672 18.95119141 25.47013672 20.52734375 25.52734375 C21.61144531 25.56214844 22.69554687 25.59695312 23.8125 25.6328125 C25.94806094 25.70137391 28.08349476 25.77406262 30.21875 25.8515625 C31.17072266 25.88185547 32.12269531 25.91214844 33.10351562 25.94335938 C35.3125 26.1328125 35.3125 26.1328125 36.3125 27.1328125 C36.41123816 29.13080822 36.44221799 31.13238408 36.4375 33.1328125 C36.44136719 34.7725 36.44136719 34.7725 36.4453125 36.4453125 C36.3125 39.1328125 36.3125 39.1328125 35.3125 40.1328125 C33.61821693 40.27812237 31.91839258 40.35997773 30.21875 40.4140625 C29.18878906 40.45144531 28.15882812 40.48882812 27.09765625 40.52734375 C24.90755208 40.59765625 22.71744792 40.66796875 20.52734375 40.73828125 C19.49738281 40.77566406 18.46742187 40.81304687 17.40625 40.8515625 C16.45427734 40.88185547 15.50230469 40.91214844 14.52148438 40.94335938 C12.33894685 40.89166652 12.33894685 40.89166652 11.3125 42.1328125 C11.16719013 43.82709557 11.08533477 45.52691992 11.03125 47.2265625 C10.99386719 48.25652344 10.95648438 49.28648438 10.91796875 50.34765625 C10.88316406 51.43175781 10.84835938 52.51585937 10.8125 53.6328125 C10.74393859 55.76837344 10.67124988 57.90380726 10.59375 60.0390625 C10.56345703 60.99103516 10.53316406 61.94300781 10.50195312 62.92382812 C10.3125 65.1328125 10.3125 65.1328125 9.3125 66.1328125 C7.31450428 66.23155066 5.31292842 66.26253049 3.3125 66.2578125 C2.219375 66.26039062 1.12625 66.26296875 0 66.265625 C-2.6875 66.1328125 -2.6875 66.1328125 -3.6875 65.1328125 C-3.83280987 63.43852943 -3.91466523 61.73870508 -3.96875 60.0390625 C-4.00613281 59.00910156 -4.04351562 57.97914062 -4.08203125 56.91796875 C-4.15234375 54.72786458 -4.22265625 52.53776042 -4.29296875 50.34765625 C-4.33035156 49.31769531 -4.36773437 48.28773437 -4.40625 47.2265625 C-4.43654297 46.27458984 -4.46683594 45.32261719 -4.49804688 44.34179688 C-4.44635402 42.15925935 -4.44635402 42.15925935 -5.6875 41.1328125 C-7.38178307 40.98750263 -9.08160742 40.90564727 -10.78125 40.8515625 C-12.32619141 40.79548828 -12.32619141 40.79548828 -13.90234375 40.73828125 C-14.98644531 40.70347656 -16.07054688 40.66867188 -17.1875 40.6328125 C-19.32306094 40.56425109 -21.45849476 40.49156238 -23.59375 40.4140625 C-24.54572266 40.38376953 -25.49769531 40.35347656 -26.47851562 40.32226562 C-28.6875 40.1328125 -28.6875 40.1328125 -29.6875 39.1328125 C-29.78623816 37.13481678 -29.81721799 35.13324092 -29.8125 33.1328125 C-29.81507812 32.0396875 -29.81765625 30.9465625 -29.8203125 29.8203125 C-29.6875 27.1328125 -29.6875 27.1328125 -28.6875 26.1328125 C-26.99321693 25.98750263 -25.29339258 25.90564727 -23.59375 25.8515625 C-22.56378906 25.81417969 -21.53382812 25.77679688 -20.47265625 25.73828125 C-18.28255208 25.66796875 -16.09244792 25.59765625 -13.90234375 25.52734375 C-12.87238281 25.48996094 -11.84242187 25.45257813 -10.78125 25.4140625 C-9.82927734 25.38376953 -8.87730469 25.35347656 -7.89648438 25.32226562 C-5.71394685 25.37395848 -5.71394685 25.37395848 -4.6875 24.1328125 C-4.54219013 22.43852943 -4.46033477 20.73870508 -4.40625 19.0390625 C-4.36886719 18.00910156 -4.33148438 16.97914062 -4.29296875 15.91796875 C-4.25816406 14.83386719 -4.22335938 13.74976562 -4.1875 12.6328125 C-4.11893859 10.49725156 -4.04624988 8.36181774 -3.96875 6.2265625 C-3.93845703 5.27458984 -3.90816406 4.32261719 -3.87695312 3.34179688 C-3.59747317 0.08311823 -3.30913657 0.16353291 0 0 Z " fill="#F5FCFE" transform="translate(86.6875,57.8671875)"/>
<path d="M0 0 C1.69576172 -0.03867187 1.69576172 -0.03867187 3.42578125 -0.078125 C7.02827832 0.28428189 8.82169627 1.07909027 11.6875 3.25 C13.82354308 6.45406462 13.92958908 7.24600747 13.8828125 10.91796875 C13.87636719 11.81064453 13.86992188 12.70332031 13.86328125 13.62304688 C13.84652344 14.55181641 13.82976562 15.48058594 13.8125 16.4375 C13.80347656 17.37787109 13.79445312 18.31824219 13.78515625 19.28710938 C13.76159056 21.60832968 13.72869116 23.92903644 13.6875 26.25 C14.26717529 26.22905273 14.84685059 26.20810547 15.4440918 26.18652344 C18.08754924 26.10303193 20.7307288 26.05123847 23.375 26 C24.74301758 25.94972656 24.74301758 25.94972656 26.13867188 25.8984375 C30.50519795 25.83492439 32.97475121 25.81277514 36.76953125 28.140625 C40.03962907 31.7370666 39.90445886 34.26030064 40 39.0625 C40.05607422 40.89748047 40.05607422 40.89748047 40.11328125 42.76953125 C39.61730695 46.8237799 38.53649719 48.39043139 35.6875 51.25 C33.28690183 52.45029908 31.79389351 52.36459743 29.1171875 52.34765625 C28.22128906 52.34443359 27.32539062 52.34121094 26.40234375 52.33789062 C24.99662109 52.32532227 24.99662109 52.32532227 23.5625 52.3125 C22.61761719 52.30798828 21.67273438 52.30347656 20.69921875 52.29882812 C18.36191613 52.28702357 16.02473939 52.27055759 13.6875 52.25 C13.70844727 52.82967529 13.72939453 53.40935059 13.75097656 54.0065918 C13.83446807 56.65004924 13.88626153 59.2932288 13.9375 61.9375 C13.98777344 63.30551758 13.98777344 63.30551758 14.0390625 64.70117188 C14.10257561 69.06769795 14.12472486 71.53725121 11.796875 75.33203125 C8.19709654 78.60516315 5.05228962 78.55819457 0.375 78.6875 C-0.94113281 78.74808594 -2.25726563 78.80867188 -3.61328125 78.87109375 C-7.3125 78.25 -7.3125 78.25 -10.2734375 75.87109375 C-13.32817064 71.5802386 -12.85957681 66.93464131 -12.625 61.875 C-12.60244141 60.94816406 -12.57988281 60.02132812 -12.55664062 59.06640625 C-12.49803677 56.79257665 -12.4160693 54.52215114 -12.3125 52.25 C-12.92246826 52.2814209 -13.53243652 52.3128418 -14.16088867 52.34521484 C-16.94021102 52.47038338 -19.71894066 52.54810435 -22.5 52.625 C-23.45970703 52.67527344 -24.41941406 52.72554687 -25.40820312 52.77734375 C-32.24797163 52.91934586 -32.24797163 52.91934586 -35.08422852 51.13598633 C-38.48518015 47.48877352 -38.96405204 44.00154829 -38.875 39.1875 C-38.87628906 38.00027344 -38.87757812 36.81304687 -38.87890625 35.58984375 C-38.22069516 31.708668 -37.04360854 30.03215729 -34.3125 27.25 C-31.91190183 26.04970092 -30.41889351 26.13540257 -27.7421875 26.15234375 C-26.84628906 26.15556641 -25.95039062 26.15878906 -25.02734375 26.16210938 C-24.09019531 26.17048828 -23.15304688 26.17886719 -22.1875 26.1875 C-21.24261719 26.19201172 -20.29773438 26.19652344 -19.32421875 26.20117188 C-16.98691613 26.21297643 -14.64973939 26.22944241 -12.3125 26.25 C-12.33344727 25.67032471 -12.35439453 25.09064941 -12.37597656 24.4934082 C-12.45946807 21.84995076 -12.51126153 19.2067712 -12.5625 16.5625 C-12.61277344 15.19448242 -12.61277344 15.19448242 -12.6640625 13.79882812 C-12.72757561 9.43230205 -12.74972486 6.96274879 -10.421875 3.16796875 C-6.93519744 -0.00232511 -4.648707 0.06317609 0 0 Z M-6.3125 7.25 C-6.45780987 8.94428307 -6.53966523 10.64410742 -6.59375 12.34375 C-6.63113281 13.37371094 -6.66851562 14.40367188 -6.70703125 15.46484375 C-6.74183594 16.54894531 -6.77664062 17.63304687 -6.8125 18.75 C-6.88106141 20.88556094 -6.95375012 23.02099476 -7.03125 25.15625 C-7.07668945 26.58420898 -7.07668945 26.58420898 -7.12304688 28.04101562 C-7.3125 30.25 -7.3125 30.25 -8.3125 31.25 C-10.00678307 31.39530987 -11.70660742 31.47716523 -13.40625 31.53125 C-14.43621094 31.56863281 -15.46617188 31.60601562 -16.52734375 31.64453125 C-18.71744792 31.71484375 -20.90755208 31.78515625 -23.09765625 31.85546875 C-24.12761719 31.89285156 -25.15757813 31.93023437 -26.21875 31.96875 C-27.17072266 31.99904297 -28.12269531 32.02933594 -29.10351562 32.06054688 C-31.28605315 32.00885402 -31.28605315 32.00885402 -32.3125 33.25 C-32.41123816 35.24799572 -32.44221799 37.24957158 -32.4375 39.25 C-32.44007812 40.343125 -32.44265625 41.43625 -32.4453125 42.5625 C-32.61797755 45.16830354 -32.61797755 45.16830354 -31.3125 46.25 C-29.61821693 46.39530987 -27.91839258 46.47716523 -26.21875 46.53125 C-24.67380859 46.58732422 -24.67380859 46.58732422 -23.09765625 46.64453125 C-22.01355469 46.67933594 -20.92945313 46.71414062 -19.8125 46.75 C-17.67693906 46.81856141 -15.54150524 46.89125012 -13.40625 46.96875 C-12.45427734 46.99904297 -11.50230469 47.02933594 -10.52148438 47.06054688 C-8.3125 47.25 -8.3125 47.25 -7.3125 48.25 C-7.16719013 49.94428307 -7.08533477 51.64410742 -7.03125 53.34375 C-6.99386719 54.37371094 -6.95648438 55.40367188 -6.91796875 56.46484375 C-6.84765625 58.65494792 -6.77734375 60.84505208 -6.70703125 63.03515625 C-6.66964844 64.06511719 -6.63226563 65.09507813 -6.59375 66.15625 C-6.56345703 67.10822266 -6.53316406 68.06019531 -6.50195312 69.04101562 C-6.55364598 71.22355315 -6.55364598 71.22355315 -5.3125 72.25 C-3.31450428 72.34873816 -1.31292842 72.37971799 0.6875 72.375 C1.780625 72.37757812 2.87375 72.38015625 4 72.3828125 C6.60580354 72.55547755 6.60580354 72.55547755 7.6875 71.25 C7.83280987 69.55571693 7.91466523 67.85589258 7.96875 66.15625 C8.00613281 65.12628906 8.04351562 64.09632812 8.08203125 63.03515625 C8.11683594 61.95105469 8.15164062 60.86695313 8.1875 59.75 C8.25606141 57.61443906 8.32875012 55.47900524 8.40625 53.34375 C8.43654297 52.39177734 8.46683594 51.43980469 8.49804688 50.45898438 C8.6875 48.25 8.6875 48.25 9.6875 47.25 C11.38178307 47.10469013 13.08160742 47.02283477 14.78125 46.96875 C15.81121094 46.93136719 16.84117188 46.89398438 17.90234375 46.85546875 C20.09244792 46.78515625 22.28255208 46.71484375 24.47265625 46.64453125 C25.50261719 46.60714844 26.53257813 46.56976563 27.59375 46.53125 C28.54572266 46.50095703 29.49769531 46.47066406 30.47851562 46.43945312 C32.66105315 46.49114598 32.66105315 46.49114598 33.6875 45.25 C33.78623816 43.25200428 33.81721799 41.25042842 33.8125 39.25 C33.81507812 38.156875 33.81765625 37.06375 33.8203125 35.9375 C33.99297755 33.33169646 33.99297755 33.33169646 32.6875 32.25 C30.99321693 32.10469013 29.29339258 32.02283477 27.59375 31.96875 C26.04880859 31.91267578 26.04880859 31.91267578 24.47265625 31.85546875 C23.38855469 31.82066406 22.30445313 31.78585938 21.1875 31.75 C19.05193906 31.68143859 16.91650524 31.60874988 14.78125 31.53125 C13.82927734 31.50095703 12.87730469 31.47066406 11.89648438 31.43945312 C9.6875 31.25 9.6875 31.25 8.6875 30.25 C8.54219013 28.55571693 8.46033477 26.85589258 8.40625 25.15625 C8.35017578 23.61130859 8.35017578 23.61130859 8.29296875 22.03515625 C8.22265625 19.84505208 8.15234375 17.65494792 8.08203125 15.46484375 C8.02595703 13.91990234 8.02595703 13.91990234 7.96875 12.34375 C7.93845703 11.39177734 7.90816406 10.43980469 7.87695312 9.45898438 C7.92864598 7.27644685 7.92864598 7.27644685 6.6875 6.25 C4.68950428 6.15126184 2.68792842 6.12028201 0.6875 6.125 C-0.405625 6.12242188 -1.49875 6.11984375 -2.625 6.1171875 C-5.23080354 5.94452245 -5.23080354 5.94452245 -6.3125 7.25 Z " fill="#2F3637" transform="translate(89.3125,51.75)"/>
<path d="M0 0 C0.33 0 0.66 0 1 0 C1 2.31 1 4.62 1 7 C0.67 7 0.34 7 0 7 C0 4.69 0 2.38 0 0 Z " fill="#122727" transform="translate(12,66)"/>
<path d="M0 0 C0.33 0 0.66 0 1 0 C1 2.31 1 4.62 1 7 C0.67 7 0.34 7 0 7 C0 4.69 0 2.38 0 0 Z " fill="#122A2A" transform="translate(167,66)"/>
<path d="M0 0 C2.31 0 4.62 0 7 0 C7 0.33 7 0.66 7 1 C4.69 1 2.38 1 0 1 C0 0.67 0 0.34 0 0 Z " fill="#12121E" transform="translate(125,20)"/>
<path d="M0 0 C2.31 0 4.62 0 7 0 C7 0.33 7 0.66 7 1 C4.69 1 2.38 1 0 1 C0 0.67 0 0.34 0 0 Z " fill="#092121" transform="translate(112,20)"/>
<path d="M0 0 C2.31 0 4.62 0 7 0 C7 0.33 7 0.66 7 1 C4.69 1 2.38 1 0 1 C0 0.67 0 0.34 0 0 Z " fill="#092121" transform="translate(61,20)"/>
<path d="M0 0 C2.31 0 4.62 0 7 0 C7 0.33 7 0.66 7 1 C4.69 1 2.38 1 0 1 C0 0.67 0 0.34 0 0 Z " fill="#12121E" transform="translate(48,20)"/>
<path d="M0 0 C0.33 0 0.66 0 1 0 C1 1.98 1 3.96 1 6 C0.67 6 0.34 6 0 6 C0 4.02 0 2.04 0 0 Z " fill="#000000" transform="translate(168,59)"/>
<path d="M0 0 C0.33 0 0.66 0 1 0 C1 1.98 1 3.96 1 6 C0.67 6 0.34 6 0 6 C0 4.02 0 2.04 0 0 Z " fill="#000000" transform="translate(11,59)"/>
<path d="M0 0 C0.33 0 0.66 0 1 0 C1 1.98 1 3.96 1 6 C0.67 6 0.34 6 0 6 C0 4.02 0 2.04 0 0 Z " fill="#152323" transform="translate(167,52)"/>
<path d="M0 0 C0.33 0 0.66 0 1 0 C1 1.98 1 3.96 1 6 C0.67 6 0.34 6 0 6 C0 4.02 0 2.04 0 0 Z " fill="#152323" transform="translate(12,52)"/>
<path d="M0 0 C1.65 0 3.3 0 5 0 C5 0.33 5 0.66 5 1 C3.35 1 1.7 1 0 1 C0 0.67 0 0.34 0 0 Z " fill="#000000" transform="translate(120,19)"/>
<path d="M0 0 C1.65 0 3.3 0 5 0 C5 0.33 5 0.66 5 1 C3.35 1 1.7 1 0 1 C0 0.67 0 0.34 0 0 Z " fill="#000000" transform="translate(55,19)"/>
<path d="M0 0 C4 1 4 1 4 1 Z " fill="#101010" transform="translate(92,159)"/>
<path d="M0 0 C4 1 4 1 4 1 Z " fill="#101010" transform="translate(84,159)"/>
<path d="M0 0 C0.99 0.33 1.98 0.66 3 1 C2.01 1 1.02 1 0 1 C0 0.67 0 0.34 0 0 Z " fill="#001515" transform="translate(53,135)"/>
<path d="M0 0 C1 4 1 4 1 4 Z " fill="#101025" transform="translate(166,73)"/>
<path d="M0 0 C1 4 1 4 1 4 Z " fill="#102525" transform="translate(13,73)"/>
<path d="M0 0 C4 1 4 1 4 1 Z " fill="#102525" transform="translate(108,21)"/>
<path d="M0 0 C4 1 4 1 4 1 Z " fill="#102525" transform="translate(68,21)"/>
<path d="" fill="#151515" transform="translate(0,0)"/>
<path d="" fill="#151515" transform="translate(0,0)"/>
<path d="" fill="#153131" transform="translate(0,0)"/>
<path d="" fill="#153131" transform="translate(0,0)"/>
<path d="M0 0 C3 1 3 1 3 1 Z " fill="#001C1C" transform="translate(139,23)"/>
<path d="M0 0 C3 1 3 1 3 1 Z " fill="#001C1C" transform="translate(38,23)"/>
<path d="M0 0 C3 1 3 1 3 1 Z " fill="#151515" transform="translate(136,22)"/>
<path d="M0 0 C3 1 3 1 3 1 Z " fill="#003838" transform="translate(105,22)"/>
<path d="M0 0 C3 1 3 1 3 1 Z " fill="#003838" transform="translate(72,22)"/>
<path d="M0 0 C3 1 3 1 3 1 Z " fill="#151515" transform="translate(41,22)"/>
<path d="M0 0 C3 1 3 1 3 1 Z " fill="#153131" transform="translate(133,21)"/>
<path d="M0 0 C3 1 3 1 3 1 Z " fill="#153131" transform="translate(44,21)"/>
<path d="M0 0 C2 1 2 1 2 1 Z " fill="#000000" transform="translate(89,160)"/>
<path d="M0 0 C2 1 2 1 2 1 Z " fill="#000000" transform="translate(97,157)"/>
<path d="M0 0 C2 1 2 1 2 1 Z " fill="#000000" transform="translate(81,157)"/>
<path d="M0 0 C2 1 2 1 2 1 Z " fill="#002A2A" transform="translate(100,155)"/>
<path d="M0 0 C2 1 2 1 2 1 Z " fill="#002A2A" transform="translate(78,155)"/>
<path d="M0 0 C2 1 2 1 2 1 Z " fill="#000000" transform="translate(112,146)"/>
<path d="M0 0 C2 1 2 1 2 1 Z " fill="#002A2A" transform="translate(66,146)"/>
<path d="M0 0 C2 1 2 1 2 1 Z " fill="#002A2A" transform="translate(117,142)"/>
<path d="" fill="#002A2A" transform="translate(0,0)"/>
<path d="" fill="#002A2A" transform="translate(0,0)"/>
<path d="" fill="#002A2A" transform="translate(0,0)"/>
<path d="" fill="#002A2A" transform="translate(0,0)"/>
<path d="" fill="#002A2A" transform="translate(0,0)"/>
<path d="" fill="#002A2A" transform="translate(0,0)"/>
<path d="M0 0 C2 1 2 1 2 1 Z " fill="#000000" transform="translate(150,29)"/>
<path d="M0 0 C2 1 2 1 2 1 Z " fill="#000000" transform="translate(28,29)"/>
<path d="M0 0 C2 1 2 1 2 1 Z " fill="#000000" transform="translate(94,28)"/>
<path d="M0 0 C2 1 2 1 2 1 Z " fill="#000000" transform="translate(147,27)"/>
<path d="M0 0 C2 1 2 1 2 1 Z " fill="#000000" transform="translate(31,27)"/>
<path d="M0 0 C2 1 2 1 2 1 Z " fill="#00002A" transform="translate(97,26)"/>
<path d="M0 0 C2 1 2 1 2 1 Z " fill="#00002A" transform="translate(81,26)"/>
<path d="M0 0 C2 1 2 1 2 1 Z " fill="#002A2A" transform="translate(144,25)"/>
<path d="M0 0 C2 1 2 1 2 1 Z " fill="#00002A" transform="translate(99,25)"/>
<path d="M0 0 C2 1 2 1 2 1 Z " fill="#000000" transform="translate(79,25)"/>
<path d="M0 0 C2 1 2 1 2 1 Z " fill="#002A2A" transform="translate(34,25)"/>
<path d="M0 0 C2 1 2 1 2 1 Z " fill="#202020" transform="translate(142,24)"/>
<path d="M0 0 C2 1 2 1 2 1 Z " fill="#00002A" transform="translate(101,24)"/>
<path d="M0 0 C2 1 2 1 2 1 Z " fill="#00002A" transform="translate(77,24)"/>
<path d="M0 0 C2 1 2 1 2 1 Z " fill="#202020" transform="translate(36,24)"/>
<path d="M0 0 C2 1 2 1 2 1 Z " fill="#202020" transform="translate(103,23)"/>
<path d="M0 0 C2 1 2 1 2 1 Z " fill="#202020" transform="translate(75,23)"/>
<path d="" fill="#005555" transform="translate(0,0)"/>
<path d="" fill="#005555" transform="translate(0,0)"/>
<path d="" fill="#404040" transform="translate(0,0)"/>
<path d="" fill="#404040" transform="translate(0,0)"/>
<path d="" fill="#005555" transform="translate(0,0)"/>
<path d="" fill="#005555" transform="translate(0,0)"/>
<path d="" fill="#005555" transform="translate(0,0)"/>
<path d="" fill="#005555" transform="translate(0,0)"/>
<path d="" fill="#005555" transform="translate(0,0)"/>
<path d="" fill="#005555" transform="translate(0,0)"/>
<path d="" fill="#404040" transform="translate(0,0)"/>
<path d="" fill="#404040" transform="translate(0,0)"/>
<path d="" fill="#000000" transform="translate(0,0)"/>
<path d="" fill="#000000" transform="translate(0,0)"/>
<path d="" fill="#004040" transform="translate(0,0)"/>
<path d="" fill="#005555" transform="translate(0,0)"/>
<path d="" fill="#404040" transform="translate(0,0)"/>
<path d="" fill="#404040" transform="translate(0,0)"/>
<path d="" fill="#000000" transform="translate(0,0)"/>
<path d="" fill="#005555" transform="translate(0,0)"/>
<path d="" fill="#005555" transform="translate(0,0)"/>
<path d="" fill="#404040" transform="translate(0,0)"/>
<path d="" fill="#004040" transform="translate(0,0)"/>
<path d="" fill="#404040" transform="translate(0,0)"/>
<path d="" fill="#404040" transform="translate(0,0)"/>
<path d="" fill="#004040" transform="translate(0,0)"/>
<path d="" fill="#404040" transform="translate(0,0)"/>
<path d="" fill="#000000" transform="translate(0,0)"/>
<path d="" fill="#000000" transform="translate(0,0)"/>
<path d="" fill="#000055" transform="translate(0,0)"/>
<path d="" fill="#000000" transform="translate(0,0)"/>
<path d="" fill="#005555" transform="translate(0,0)"/>
<path d="" fill="#005555" transform="translate(0,0)"/>
<path d="" fill="#004040" transform="translate(0,0)"/>
<path d="" fill="#005555" transform="translate(0,0)"/>
<path d="" fill="#404040" transform="translate(0,0)"/>
<path d="" fill="#404040" transform="translate(0,0)"/>
<path d="" fill="#404040" transform="translate(0,0)"/>
<path d="" fill="#404040" transform="translate(0,0)"/>
<path d="" fill="#404040" transform="translate(0,0)"/>
<path d="" fill="#404040" transform="translate(0,0)"/>
<path d="" fill="#404040" transform="translate(0,0)"/>
<path d="" fill="#404040" transform="translate(0,0)"/>
<path d="" fill="#404040" transform="translate(0,0)"/>
<path d="" fill="#404040" transform="translate(0,0)"/>
<path d="" fill="#404040" transform="translate(0,0)"/>
<path d="" fill="#404040" transform="translate(0,0)"/>
<path d="" fill="#404040" transform="translate(0,0)"/>
<path d="" fill="#404040" transform="translate(0,0)"/>
<path d="" fill="#404040" transform="translate(0,0)"/>
<path d="" fill="#404040" transform="translate(0,0)"/>
<path d="" fill="#005555" transform="translate(0,0)"/>
<path d="" fill="#005555" transform="translate(0,0)"/>
<path d="" fill="#005555" transform="translate(0,0)"/>
<path d="" fill="#005555" transform="translate(0,0)"/>
<path d="" fill="#000000" transform="translate(0,0)"/>
<path d="" fill="#000000" transform="translate(0,0)"/>
<path d="" fill="#404040" transform="translate(0,0)"/>
<path d="" fill="#404040" transform="translate(0,0)"/>
<path d="" fill="#005555" transform="translate(0,0)"/>
<path d="" fill="#005555" transform="translate(0,0)"/>
<path d="" fill="#404040" transform="translate(0,0)"/>
<path d="" fill="#404040" transform="translate(0,0)"/>
<path d="" fill="#005555" transform="translate(0,0)"/>
<path d="" fill="#005555" transform="translate(0,0)"/>
<path d="" fill="#404040" transform="translate(0,0)"/>
<path d="" fill="#404040" transform="translate(0,0)"/>
<path d="" fill="#404040" transform="translate(0,0)"/>
<path d="" fill="#404040" transform="translate(0,0)"/>
<path d="" fill="#404040" transform="translate(0,0)"/>
<path d="" fill="#404040" transform="translate(0,0)"/>
<path d="" fill="#404040" transform="translate(0,0)"/>
<path d="" fill="#404040" transform="translate(0,0)"/>
<path d="" fill="#404040" transform="translate(0,0)"/>
<path d="" fill="#404040" transform="translate(0,0)"/>
<path d="" fill="#004040" transform="translate(0,0)"/>
<path d="" fill="#004040" transform="translate(0,0)"/>
<path d="" fill="#000000" transform="translate(0,0)"/>
<path d="" fill="#000000" transform="translate(0,0)"/>
<path d="" fill="#004040" transform="translate(0,0)"/>
<path d="" fill="#004040" transform="translate(0,0)"/>
<path d="" fill="#004040" transform="translate(0,0)"/>
<path d="" fill="#004040" transform="translate(0,0)"/>
<path d="" fill="#005555" transform="translate(0,0)"/>
<path d="" fill="#005555" transform="translate(0,0)"/>
<path d="" fill="#005555" transform="translate(0,0)"/>
<path d="" fill="#005555" transform="translate(0,0)"/>
</svg>
